#!OML:ASF H:\Male1\Project 1\Capture day 1\Session 1\Male1.ASF
:FULLY-SPECIFIED
:DEGREES
679
root 2.86301 14.64 8.41763 -885.114 52.3256 -167.048
lowerback 13.5957 -1.98076 0.151463
upperback 7.06501 -1.99083 2.36853
thorax -0.108264 -0.796908 2.64734
lowerneck -12.5402 4.52471 8.06028
upperneck 3.20352 5.39269 -8.14601
head 3.42338 2.44807 -3.42802
rclavicle 7.43455e-014 -3.65764e-014
rhumerus -70.5962 6.93614 -89.2183
rradius 83.7028
rwrist -43.8276
rhand -38.6517 14.8295
rfingers 7.12502
rthumb -11.6677 -14.8257
lclavicle 7.43455e-014 -3.65764e-014
lhumerus -46.1455 -7.90974 86.2702
lradius 114.329
lwrist 21.5271
lhand -28.5363 1.68351
lfingers 7.12502
lthumb -1.90389 31.6548
rfemur -35.6678 8.06551 26.2233
rtibia 48.0708
rfoot -20.209 -15.6758
rtoes -35.2759
lfemur 3.27985 -4.80924 -33.3199
ltibia 57.1709
lfoot -6.11485 7.11282
ltoes 2.01651
680
root 3.37343 14.5622 8.04359 -885.216 51.0907 -166.09
lowerback 13.7659 -2.02239 1.27719
upperback 7.07967 -1.86533 2.85067
thorax -0.211433 -0.698089 2.50585
lowerneck -12.6644 4.10453 7.7821
upperneck 3.45498 4.85173 -7.82795
head 3.45952 2.18568 -3.32341
rclavicle 1.02772e-013 -5.725e-014
rhumerus -68.8569 7.01378 -88.8
rradius 83.3458
rwrist -43.9101
rhand -39.1315 14.4664
rfingers 7.12502
rthumb -12.1304 -15.1619
lclavicle 1.02772e-013 -5.725e-014
lhumerus -48.5479 -7.74482 87.1807
lradius 110.825
lwrist 22.8859
lhand -27.9838 2.77645
lfingers 7.12502
lthumb -1.37031 32.7518
rfemur -31.8975 8.13537 27.5351
rtibia 47.6359
rfoot -20.3928 -16.9951
rtoes -37.7593
lfemur -0.603855 -3.45863 -30.1772
ltibia 65.4096
lfoot -8.50136 9.06717
ltoes 2.77559
681
root 3.87039 14.4834 7.66666 -884.748 50.069 -164.544
lowerback 14.0081 -1.98746 2.6846
upperback 7.03479 -1.58809 3.36477
thorax -0.421797 -0.51628 2.22145
lowerneck -12.8059 3.68015 7.52912
upperneck 3.64571 4.29521 -7.4756
head 3.48166 1.91826 -3.21321
rclavicle 5.18828e-014 -7.95139e-016
rhumerus -66.7036 7.59572 -88.5448
rradius 82.9417
rwrist -43.8345
rhand -39.5011 13.993
rfingers 7.12502
rthumb -12.4868 -15.6139
lclavicle 5.18828e-014 -7.95139e-016
lhumerus -51.1967 -7.37052 87.9354
lradius 106.988
lwrist 23.1308
lhand -28.0914 3.83777
lfingers 7.12502
lthumb -1.47423 33.8124
rfemur -28.1912 7.432 29.3002
rtibia 47.3957
rfoot -21.1211 -17.7692
rtoes -40.211
lfemur -5.0819 -2.29557 -26.5169
ltibia 72.9941
lfoot -10.3997 9.84019
ltoes 3.28528
682
root 4.35173 14.4157 7.2859 -883.905 49.4188 -162.732
lowerback 14.2862 -1.86016 4.14369
upperback 6.95305 -1.16879 3.81911
thorax -0.682123 -0.265191 1.82562
lowerneck -12.9606 3.30048 7.35304
upperneck 3.74775 3.78275 -7.12616
head 3.487 1.67478 -3.11293
rclavicle 5.74488e-014 -4.45278e-014
rhumerus -64.1635 8.75785 -88.4357
rradius 82.5803
rwrist -43.5453
rhand -39.6214 13.4826
rfingers 7.12502
rthumb -12.6028 -16.1173
lclavicle 5.74488e-014 -4.45278e-014
lhumerus -54.0337 -6.66402 88.4001
lradius 103.184
lwrist 22.4712
lhand -28.79 4.96456
lfingers 7.12502
lthumb -2.1489 34.9335
rfemur -24.6429 6.27189 31.0788
rtibia 47.0625
rfoot -22.2797 -17.9699
rtoes -42.2197
lfemur -10.0798 -1.15344 -22.6803
ltibia 79.5694
lfoot -11.7758 9.67161
ltoes 2.97786
683
root 4.82036 14.372 6.89694 -883.08 49.2652 -161.205
lowerback 14.5292 -1.60298 5.29756
upperback 6.84537 -0.626847 4.07819
thorax -0.932822 0.0324483 1.37494
lowerneck -13.1056 2.97087 7.23951
upperneck 3.80622 3.32098 -6.71347
head 3.48347 1.46113 -2.99939
rclavicle -1.38354e-013 7.95139e-016
rhumerus -61.4567 10.3514 -88.3667
rradius 82.5129
rwrist -42.9811
rhand -39.4135 12.9328
rfingers 7.12502
rthumb -12.4024 -16.6793
lclavicle -1.38354e-013 7.95139e-016
lhumerus -57.0453 -5.66498 88.4859
lradius 99.8
lwrist 21.5711
lhand -29.8005 6.14166
lfingers 7.12502
lthumb -3.12479 36.0985
rfemur -21.1902 5.04538 32.3188
rtibia 46.4226
rfoot -23.5577 -17.6278
rtoes -44.0283
lfemur -15.3735 -0.0191518 -19.2525
ltibia 84.8041
lfoot -12.8696 9.06025
ltoes 2.4397
